HIERARCHY
ROOT Hips
{
    OFFSET 0.000000 0.000000 0.000000
    CHANNELS 6 Xposition Yposition Zposition Zrotation Yrotation Xrotation
    JOINT LeftUpLeg
    {
        OFFSET 1.363060 -1.794630 0.839290
        CHANNELS 3 Zrotation Yrotation Xrotation
        JOINT LeftLeg
        {
            OFFSET 2.448110 -6.726130 0.000000
            CHANNELS 3 Zrotation Yrotation Xrotation
            JOINT LeftFoot
            {
                OFFSET 2.562200 -7.039589 0.000000
                CHANNELS 3 Zrotation Yrotation Xrotation
                JOINT LeftToeBase
                {
                    OFFSET 0.157640 -0.433110 2.322550
                    CHANNELS 3 Zrotation Yrotation Xrotation
                    End Site
                    {
                        OFFSET 0.000000 0.000000 0.000000
                    }
                }
            }
        }
    }
    JOINT RightUpLeg
    {
        OFFSET -1.305520 -1.794630 0.839290
        CHANNELS 3 Zrotation Yrotation Xrotation
        JOINT RightLeg
        {
            OFFSET -2.542530 -6.985549 0.000000
            CHANNELS 3 Zrotation Yrotation Xrotation
            JOINT RightFoot
            {
                OFFSET -2.568260 -7.056230 0.000000
                CHANNELS 3 Zrotation Yrotation Xrotation
                JOINT RightToeBase
                {
                    OFFSET -0.164730 -0.452590 2.363150
                    CHANNELS 3 Zrotation Yrotation Xrotation
                    End Site
                    {
                        OFFSET 0.000000 0.000000 0.000000
                    }
                }
            }
        }
    }
    JOINT Spine
    {
        OFFSET 0.028270 2.035590 -0.193380
        CHANNELS 3 Zrotation Yrotation Xrotation
        JOINT Spine1
        {
            OFFSET 0.056720 2.048850 -0.042750
            CHANNELS 3 Zrotation Yrotation Xrotation
            JOINT Neck1
            {
                OFFSET -0.054170 1.746240 0.172020
                CHANNELS 3 Zrotation Yrotation Xrotation
                JOINT Head
                {
                    OFFSET 0.104070 1.761360 -0.123970
                    CHANNELS 3 Zrotation Yrotation Xrotation
                    End Site
                    {
                        OFFSET 0.000000 0.000000 0.000000
                    }
                }
            }
            JOINT LeftShoulder
            {
                OFFSET 0.000000 0.000000 0.000000
                CHANNELS 3 Zrotation Yrotation Xrotation
                JOINT LeftArm
                {
                    OFFSET 3.362410 1.200890 -0.311210
                    CHANNELS 3 Zrotation Yrotation Xrotation
                    JOINT LeftForeArm
                    {
                        OFFSET 4.983000 -0.000000 -0.000000
                        CHANNELS 3 Zrotation Yrotation Xrotation
                        JOINT LeftHand
                        {
                            OFFSET 3.483560 -0.000000 -0.000000
                            CHANNELS 3 Zrotation Yrotation Xrotation
                            End Site
                            {
                                OFFSET 0.000000 0.000000 0.000000
                            }
                        }
                    }
                }
            }
            JOINT RightShoulder
            {
                OFFSET 0.000000 0.000000 0.000000
                CHANNELS 3 Zrotation Yrotation Xrotation
                JOINT RightArm
                {
                    OFFSET -3.136600 1.374050 -0.404650
                    CHANNELS 3 Zrotation Yrotation Xrotation
                    JOINT RightForeArm
                    {
                        OFFSET -5.241900 -0.000000 -0.000000
                        CHANNELS 3 Zrotation Yrotation Xrotation
                        JOINT RightHand
                        {
                            OFFSET -3.444170 -0.000000 -0.000000
                            CHANNELS 3 Zrotation Yrotation Xrotation
                            End Site
                            {
                                OFFSET 0.000000 0.000000 0.000000
                            }
                        }
                    }
                }
            }
        }
    }
}
MOTION
Frames: 5
Frame Time: 0.016667
26.042181 16.680141 4.904751 1.727526 -6.019578 27.095032 -11.167789 -7.418067 -48.895584 -28.189304 -21.135010 61.875244 -11.671536 35.687691 -30.810522 -0.256286 -0.085200 -1.627664 7.295966 8.140179 -49.780365 44.612686 15.295007 76.572609 15.844032 -51.984718 -54.178123 -0.106926 -0.358623 -0.874591 2.377968 -1.913112 12.787655 -2.705753 -0.971792 -4.282868 2.496021 -4.123109 23.130590 -5.775527 -2.215854 -27.780064 3.469191 -14.015354 -0.377819 -86.280457 -40.297527 47.990486 58.693428 -37.121899 -54.339970 4.340632 -10.141878 -22.077806 -3.354391 13.318955 0.211174 83.391602 39.215366 35.873596 -62.897804 66.192871 -74.439247 -7.703003 5.183897 3.601954 
26.045149 16.575462 4.906258 1.685650 -6.036048 27.283030 -11.118283 -7.613787 -49.918827 -28.162146 -20.088284 62.987404 -11.808617 35.135715 -31.797297 -0.259213 -0.538519 -1.310555 7.025092 8.429060 -50.558334 46.066650 14.358375 77.913116 16.083469 -53.168266 -55.971958 -0.152752 -0.516189 -0.708414 2.364439 -1.935499 12.654064 -2.735850 -0.992468 -4.288293 2.599788 -4.070366 23.115715 -5.709896 -2.163154 -28.047806 3.503254 -14.083014 -0.338281 -86.478722 -40.239685 48.157970 58.589611 -37.205795 -54.591599 3.630125 -9.876081 -22.072769 -3.445616 13.365526 0.146493 83.366791 39.401169 35.949238 -62.530056 66.036781 -74.032501 -7.135610 5.008332 3.916347 
26.054941 16.465952 4.911891 1.578834 -6.117004 27.251886 -11.213894 -7.804141 -50.826004 -29.293934 -19.524658 65.367531 -11.405883 36.270710 -33.012966 -0.275549 -0.586899 -1.385059 7.249660 8.327100 -51.220814 46.773502 13.433717 79.128319 15.920442 -53.414211 -56.986904 -0.226067 -0.765875 -0.532161 2.375345 -1.962673 12.740564 -2.746291 -1.014335 -4.305411 2.774805 -3.963699 23.079657 -5.867804 -2.124126 -28.164265 3.437637 -14.061660 -0.309386 -86.635010 -40.303307 48.258892 58.355011 -37.491016 -54.628963 2.843786 -9.859951 -21.809887 -3.411665 13.266714 0.167387 83.272392 39.925026 36.058144 -62.652248 65.718147 -73.099327 -8.490943 6.030982 3.414315 
26.062798 16.339365 4.913782 1.558640 -6.151372 26.918339 -11.621418 -7.766656 -51.647686 -32.016689 -19.316555 69.185402 -10.870697 38.786385 -35.161671 -0.242989 -0.436067 -1.278424 7.970086 7.717546 -51.872814 48.279980 12.576317 81.579887 16.088804 -54.355865 -58.759399 -0.137590 -0.463158 -0.375579 2.310732 -2.004838 13.089504 -2.766456 -1.047639 -4.351339 2.849632 -3.803579 22.962122 -5.498135 -1.937000 -27.936785 3.353452 -14.105921 -0.188718 -86.521317 -40.627995 47.671825 57.898830 -38.190430 -54.917717 3.088063 -9.561677 -21.407709 -3.343607 13.235628 0.058738 83.169670 40.142090 36.500343 -61.994404 65.276939 -73.243202 -9.264290 5.920661 2.810166 
26.072277 16.212044 4.919094 1.491537 -6.096618 26.559313 -12.300990 -7.612125 -52.360031 -33.885384 -19.058641 72.576546 -10.767765 40.342449 -37.513687 -0.161924 -0.898632 -0.354384 8.599216 7.145585 -52.491791 49.724476 11.486045 83.784470 16.163452 -55.294788 -60.422478 -0.192098 -0.647558 -0.273609 2.328105 -2.024225 13.450407 -2.757742 -1.066755 -4.321047 3.074288 -3.752921 22.986488 -5.556484 -1.973666 -28.205519 3.257732 -14.333752 -0.081371 -86.571381 -40.942562 48.534695 58.628315 -37.421486 -54.816681 2.827959 -9.602858 -21.989368 -3.257642 13.325060 0.135531 82.884392 40.465706 36.235710 -61.719292 64.961899 -71.554085 -7.767622 5.914492 3.643954 
